<svg xmlns="http://www.w3.org/2000/svg" width="900" height="320" viewBox="0 0 900 320" role="img" aria-labelledby="title desc">
  <title id="title">Evolução dos commits de bielxdh3</title>
  <desc id="desc">Gráfico acumulado dos commits reais alcançáveis por branches, de 2026-04-23 até 2026-08-31. Total atual: 910. repositórios privados permanecem anônimos.</desc>
  <defs>
    <linearGradient id="lineGradient" x1="0" x2="1">
      <stop offset="0%" stop-color="#B8E6FF"/>
      <stop offset="55%" stop-color="#9ED8FA"/>
      <stop offset="100%" stop-color="#C8B6FF"/>
    </linearGradient>
    <linearGradient id="areaGradient" x1="0" y1="0" x2="0" y2="1">
      <stop offset="0%" stop-color="#B8E6FF" stop-opacity="0.22"/>
      <stop offset="100%" stop-color="#C8B6FF" stop-opacity="0.02"/>
    </linearGradient>
    <style>
      .title { fill: #E6EDF3; font: 700 22px ui-monospace, SFMono-Regular, Menlo, Consolas, monospace; }
      .value { fill: #B8E6FF; font: 700 22px ui-monospace, SFMono-Regular, Menlo, Consolas, monospace; }
      .subtitle { fill: #8B949E; font: 12px ui-monospace, SFMono-Regular, Menlo, Consolas, monospace; }
      .axis { fill: #8B949E; font: 11px ui-monospace, SFMono-Regular, Menlo, Consolas, monospace; }
      .small { fill: #8B949E; font: 10px ui-monospace, SFMono-Regular, Menlo, Consolas, monospace; }
    </style>
  </defs>

  <rect x="1" y="1" width="898" height="318" rx="18" fill="#0D1117" stroke="#30363D"/>
  <text x="42" y="38" class="title">EVOLUÇÃO DOS COMMITS</text>
  <text x="858" y="38" text-anchor="end" class="value">910</text>
  <text x="42" y="60" class="subtitle">todas as branches acessíveis · repositórios privados permanecem anônimos</text>
  <text x="858" y="60" text-anchor="end" class="small">@bielxdh3</text>

  <line x1="92" y1="90.00" x2="860" y2="90.00" stroke="#27303A" stroke-width="1"/>
  <text x="78" y="94.00" text-anchor="end" class="axis">983</text>
  <line x1="92" y1="133.50" x2="860" y2="133.50" stroke="#27303A" stroke-width="1"/>
  <text x="78" y="137.50" text-anchor="end" class="axis">737</text>
  <line x1="92" y1="177.00" x2="860" y2="177.00" stroke="#27303A" stroke-width="1"/>
  <text x="78" y="181.00" text-anchor="end" class="axis">492</text>
  <line x1="92" y1="220.50" x2="860" y2="220.50" stroke="#27303A" stroke-width="1"/>
  <text x="78" y="224.50" text-anchor="end" class="axis">246</text>
  <line x1="92" y1="264.00" x2="860" y2="264.00" stroke="#27303A" stroke-width="1"/>
  <text x="78" y="268.00" text-anchor="end" class="axis">0</text>
  <line x1="92" y1="264" x2="860" y2="264" stroke="#3A4550" stroke-width="1.2"/>

  <path d="M 92.00 264.00 L 92.00 263.82 L 97.91 262.94 L 103.82 262.76 L 109.72 262.58 L 115.63 261.70 L 121.54 261.52 L 127.45 261.34 L 133.35 261.34 L 139.26 261.34 L 145.17 261.34 L 151.08 261.34 L 156.98 261.34 L 162.89 261.34 L 168.80 261.34 L 174.71 261.34 L 180.62 261.34 L 186.52 261.34 L 192.43 261.34 L 198.34 261.34 L 204.25 261.34 L 210.15 261.34 L 216.06 261.34 L 221.97 261.34 L 227.88 261.34 L 233.78 261.34 L 239.69 261.34 L 245.60 261.34 L 251.51 261.34 L 257.42 261.34 L 263.32 261.34 L 269.23 261.34 L 275.14 261.34 L 281.05 261.34 L 286.95 261.34 L 292.86 261.34 L 298.77 261.34 L 304.68 261.34 L 310.58 261.34 L 316.49 261.34 L 322.40 261.34 L 328.31 261.34 L 334.22 261.34 L 340.12 261.34 L 346.03 261.34 L 351.94 261.34 L 357.85 261.34 L 363.75 261.34 L 369.66 261.34 L 375.57 261.34 L 381.48 261.34 L 387.38 261.34 L 393.29 261.34 L 399.20 261.34 L 405.11 261.34 L 411.02 261.34 L 416.92 261.34 L 422.83 261.34 L 428.74 260.11 L 434.65 257.45 L 440.55 257.10 L 446.46 254.80 L 452.37 252.14 L 458.28 249.49 L 464.18 246.30 L 470.09 244.88 L 476.00 244.88 L 481.91 244.53 L 487.82 244.53 L 493.72 244.53 L 499.63 244.53 L 505.54 244.53 L 511.45 244.53 L 517.35 244.53 L 523.26 244.53 L 529.17 244.53 L 535.08 244.53 L 540.98 244.53 L 546.89 244.53 L 552.80 244.00 L 558.71 244.00 L 564.62 244.00 L 570.52 244.00 L 576.43 237.27 L 582.34 236.56 L 588.25 235.50 L 594.15 235.50 L 600.06 235.32 L 605.97 235.32 L 611.88 235.15 L 617.78 230.19 L 623.69 229.48 L 629.60 229.31 L 635.51 229.13 L 641.42 226.83 L 647.32 221.16 L 653.23 218.51 L 659.14 218.15 L 665.05 217.09 L 670.95 216.38 L 676.86 211.61 L 682.77 204.17 L 688.68 194.08 L 694.58 187.89 L 700.49 186.29 L 706.40 185.05 L 712.31 183.64 L 718.22 182.40 L 724.12 180.45 L 730.03 180.45 L 735.94 180.27 L 741.85 178.68 L 747.75 178.68 L 753.66 176.03 L 759.57 173.73 L 765.48 173.02 L 771.38 168.95 L 777.29 167.88 L 783.20 167.88 L 789.11 167.35 L 795.02 150.54 L 800.92 139.39 L 806.83 130.89 L 812.74 129.65 L 818.65 128.94 L 824.55 128.94 L 830.46 128.94 L 836.37 125.22 L 842.28 116.91 L 848.18 113.01 L 854.09 104.69 L 860.00 102.92 L 860.00 264.00 Z" fill="url(#areaGradient)"/>
  <polyline points="92.00,263.82 97.91,262.94 103.82,262.76 109.72,262.58 115.63,261.70 121.54,261.52 127.45,261.34 133.35,261.34 139.26,261.34 145.17,261.34 151.08,261.34 156.98,261.34 162.89,261.34 168.80,261.34 174.71,261.34 180.62,261.34 186.52,261.34 192.43,261.34 198.34,261.34 204.25,261.34 210.15,261.34 216.06,261.34 221.97,261.34 227.88,261.34 233.78,261.34 239.69,261.34 245.60,261.34 251.51,261.34 257.42,261.34 263.32,261.34 269.23,261.34 275.14,261.34 281.05,261.34 286.95,261.34 292.86,261.34 298.77,261.34 304.68,261.34 310.58,261.34 316.49,261.34 322.40,261.34 328.31,261.34 334.22,261.34 340.12,261.34 346.03,261.34 351.94,261.34 357.85,261.34 363.75,261.34 369.66,261.34 375.57,261.34 381.48,261.34 387.38,261.34 393.29,261.34 399.20,261.34 405.11,261.34 411.02,261.34 416.92,261.34 422.83,261.34 428.74,260.11 434.65,257.45 440.55,257.10 446.46,254.80 452.37,252.14 458.28,249.49 464.18,246.30 470.09,244.88 476.00,244.88 481.91,244.53 487.82,244.53 493.72,244.53 499.63,244.53 505.54,244.53 511.45,244.53 517.35,244.53 523.26,244.53 529.17,244.53 535.08,244.53 540.98,244.53 546.89,244.53 552.80,244.00 558.71,244.00 564.62,244.00 570.52,244.00 576.43,237.27 582.34,236.56 588.25,235.50 594.15,235.50 600.06,235.32 605.97,235.32 611.88,235.15 617.78,230.19 623.69,229.48 629.60,229.31 635.51,229.13 641.42,226.83 647.32,221.16 653.23,218.51 659.14,218.15 665.05,217.09 670.95,216.38 676.86,211.61 682.77,204.17 688.68,194.08 694.58,187.89 700.49,186.29 706.40,185.05 712.31,183.64 718.22,182.40 724.12,180.45 730.03,180.45 735.94,180.27 741.85,178.68 747.75,178.68 753.66,176.03 759.57,173.73 765.48,173.02 771.38,168.95 777.29,167.88 783.20,167.88 789.11,167.35 795.02,150.54 800.92,139.39 806.83,130.89 812.74,129.65 818.65,128.94 824.55,128.94 830.46,128.94 836.37,125.22 842.28,116.91 848.18,113.01 854.09,104.69 860.00,102.92" fill="none" stroke="url(#lineGradient)" stroke-width="3.4" stroke-linecap="round" stroke-linejoin="round"/>
  <circle cx="860.00" cy="102.92" r="6" fill="#C8B6FF" stroke="#B8E6FF" stroke-width="3"/>

  <text x="92.00" y="298" text-anchor="middle" class="axis">23/04/26</text>
  <text x="281.05" y="298" text-anchor="middle" class="axis">25/05/26</text>
  <text x="476.00" y="298" text-anchor="middle" class="axis">27/06/26</text>
  <text x="670.95" y="298" text-anchor="middle" class="axis">30/07/26</text>
  <text x="860.00" y="298" text-anchor="middle" class="axis">31/08/26</text>
</svg>
