<svg xmlns="http://www.w3.org/2000/svg" width="900" height="320" viewBox="0 0 900 320" role="img" aria-labelledby="title desc">
  <title id="title">Evolução das contribuições de bielxdh3</title>
  <desc id="desc">Contribuições contabilizadas pelo perfil GitHub do primeiro registro de 2026, em 2026-04-23, até 2026-10-01. Total: 1897. repositórios privados permanecem anônimos.</desc>
  <defs>
    <linearGradient id="lineGradient" x1="0" x2="1">
      <stop offset="0%" stop-color="#B8E6FF"/>
      <stop offset="55%" stop-color="#9ED8FA"/>
      <stop offset="100%" stop-color="#C8B6FF"/>
    </linearGradient>
    <linearGradient id="areaGradient" x1="0" y1="0" x2="0" y2="1">
      <stop offset="0%" stop-color="#B8E6FF" stop-opacity="0.22"/>
      <stop offset="100%" stop-color="#C8B6FF" stop-opacity="0.02"/>
    </linearGradient>
    <style>
      .title { fill: #E6EDF3; font: 700 22px ui-monospace, SFMono-Regular, Menlo, Consolas, monospace; }
      .value { fill: #B8E6FF; font: 700 22px ui-monospace, SFMono-Regular, Menlo, Consolas, monospace; }
      .subtitle { fill: #8B949E; font: 12px ui-monospace, SFMono-Regular, Menlo, Consolas, monospace; }
      .axis { fill: #8B949E; font: 11px ui-monospace, SFMono-Regular, Menlo, Consolas, monospace; }
      .small { fill: #8B949E; font: 10px ui-monospace, SFMono-Regular, Menlo, Consolas, monospace; }
    </style>
  </defs>

  <rect x="1" y="1" width="898" height="318" rx="18" fill="#0D1117" stroke="#30363D"/>
  <text x="42" y="38" class="title">EVOLUÇÃO DAS CONTRIBUIÇÕES</text>
  <text x="780" y="38" text-anchor="end" class="value">1.897</text>
  <text x="42" y="60" class="subtitle">desde 23/04/2026 · repositórios privados permanecem anônimos</text>
  <text x="780" y="60" text-anchor="end" class="small">@bielxdh3</text>

  <line x1="92" y1="90.00" x2="860" y2="90.00" stroke="#27303A" stroke-width="1"/>
  <text x="78" y="94.00" text-anchor="end" class="axis">2.049</text>
  <line x1="92" y1="133.50" x2="860" y2="133.50" stroke="#27303A" stroke-width="1"/>
  <text x="78" y="137.50" text-anchor="end" class="axis">1.537</text>
  <line x1="92" y1="177.00" x2="860" y2="177.00" stroke="#27303A" stroke-width="1"/>
  <text x="78" y="181.00" text-anchor="end" class="axis">1.024</text>
  <line x1="92" y1="220.50" x2="860" y2="220.50" stroke="#27303A" stroke-width="1"/>
  <text x="78" y="224.50" text-anchor="end" class="axis">512</text>
  <line x1="92" y1="264.00" x2="860" y2="264.00" stroke="#27303A" stroke-width="1"/>
  <text x="78" y="268.00" text-anchor="end" class="axis">0</text>
  <line x1="92" y1="264" x2="860" y2="264" stroke="#3A4550" stroke-width="1.2"/>

  <path d="M 92.00 264.00 L 92.00 263.83 L 96.77 263.41 L 101.54 263.24 L 106.31 263.24 L 111.08 262.81 L 115.85 262.73 L 120.62 262.64 L 125.39 262.64 L 130.16 262.64 L 134.93 262.64 L 139.70 262.64 L 144.47 262.64 L 149.24 262.64 L 154.01 262.64 L 158.78 262.64 L 163.55 262.64 L 168.32 262.64 L 173.09 262.64 L 177.86 262.64 L 182.63 262.64 L 187.40 262.64 L 192.17 262.64 L 196.94 262.64 L 201.71 262.64 L 206.48 262.64 L 211.25 262.64 L 216.02 262.64 L 220.80 262.64 L 225.57 262.64 L 230.34 262.64 L 235.11 262.64 L 239.88 262.64 L 244.65 262.64 L 249.42 262.64 L 254.19 262.64 L 258.96 262.64 L 263.73 262.64 L 268.50 262.64 L 273.27 262.64 L 278.04 262.64 L 282.81 262.64 L 287.58 262.64 L 292.35 262.64 L 297.12 262.64 L 301.89 262.64 L 306.66 262.64 L 311.43 262.64 L 316.20 262.64 L 320.97 262.64 L 325.74 262.64 L 330.51 262.64 L 335.28 262.64 L 340.05 262.64 L 344.82 262.64 L 349.59 262.64 L 354.36 262.64 L 359.13 262.64 L 363.90 261.45 L 368.67 260.69 L 373.44 260.43 L 378.21 258.99 L 382.98 258.06 L 387.75 256.61 L 392.52 254.91 L 397.29 254.57 L 402.06 254.49 L 406.83 254.40 L 411.60 254.40 L 416.37 254.40 L 421.14 254.40 L 425.91 254.40 L 430.68 254.40 L 435.45 254.40 L 440.22 254.40 L 444.99 254.40 L 449.76 254.40 L 454.53 254.40 L 459.30 254.40 L 464.07 254.40 L 468.84 254.40 L 473.61 254.40 L 478.39 254.40 L 483.16 251.18 L 487.93 250.84 L 492.70 250.33 L 497.47 250.24 L 502.24 250.24 L 507.01 250.24 L 511.78 248.46 L 516.55 247.61 L 521.32 247.27 L 526.09 247.27 L 530.86 247.19 L 535.63 242.09 L 540.40 240.90 L 545.17 240.65 L 549.94 240.48 L 554.71 239.88 L 559.48 239.03 L 564.25 235.89 L 569.02 230.20 L 573.79 225.53 L 578.56 224.43 L 583.33 223.75 L 588.10 222.90 L 592.87 221.29 L 597.64 221.29 L 602.41 220.10 L 607.18 220.10 L 611.95 219.84 L 616.72 218.74 L 621.49 218.74 L 626.26 217.21 L 631.03 216.11 L 635.80 215.68 L 640.57 212.79 L 645.34 212.37 L 650.11 212.28 L 654.88 211.69 L 659.65 203.28 L 664.42 200.82 L 669.19 196.23 L 673.96 195.64 L 678.73 195.22 L 683.50 195.22 L 688.27 195.22 L 693.04 193.18 L 697.81 189.53 L 702.58 189.02 L 707.35 188.25 L 712.12 186.30 L 716.89 185.45 L 721.66 185.02 L 726.43 180.35 L 731.20 176.45 L 735.98 176.19 L 740.75 172.80 L 745.52 171.18 L 750.29 169.91 L 755.06 167.28 L 759.83 165.83 L 764.60 164.39 L 769.37 159.21 L 774.14 152.50 L 778.91 151.40 L 783.68 147.83 L 788.45 145.11 L 793.22 143.67 L 797.99 140.10 L 802.76 139.59 L 807.53 139.59 L 812.30 136.11 L 817.07 133.73 L 821.84 129.40 L 826.61 125.16 L 831.38 122.27 L 836.15 115.22 L 840.92 111.48 L 845.69 108.85 L 850.46 106.56 L 855.23 104.35 L 860.00 102.91 L 860.00 264.00 Z" fill="url(#areaGradient)"/>
  <polyline points="92.00,263.83 96.77,263.41 101.54,263.24 106.31,263.24 111.08,262.81 115.85,262.73 120.62,262.64 125.39,262.64 130.16,262.64 134.93,262.64 139.70,262.64 144.47,262.64 149.24,262.64 154.01,262.64 158.78,262.64 163.55,262.64 168.32,262.64 173.09,262.64 177.86,262.64 182.63,262.64 187.40,262.64 192.17,262.64 196.94,262.64 201.71,262.64 206.48,262.64 211.25,262.64 216.02,262.64 220.80,262.64 225.57,262.64 230.34,262.64 235.11,262.64 239.88,262.64 244.65,262.64 249.42,262.64 254.19,262.64 258.96,262.64 263.73,262.64 268.50,262.64 273.27,262.64 278.04,262.64 282.81,262.64 287.58,262.64 292.35,262.64 297.12,262.64 301.89,262.64 306.66,262.64 311.43,262.64 316.20,262.64 320.97,262.64 325.74,262.64 330.51,262.64 335.28,262.64 340.05,262.64 344.82,262.64 349.59,262.64 354.36,262.64 359.13,262.64 363.90,261.45 368.67,260.69 373.44,260.43 378.21,258.99 382.98,258.06 387.75,256.61 392.52,254.91 397.29,254.57 402.06,254.49 406.83,254.40 411.60,254.40 416.37,254.40 421.14,254.40 425.91,254.40 430.68,254.40 435.45,254.40 440.22,254.40 444.99,254.40 449.76,254.40 454.53,254.40 459.30,254.40 464.07,254.40 468.84,254.40 473.61,254.40 478.39,254.40 483.16,251.18 487.93,250.84 492.70,250.33 497.47,250.24 502.24,250.24 507.01,250.24 511.78,248.46 516.55,247.61 521.32,247.27 526.09,247.27 530.86,247.19 535.63,242.09 540.40,240.90 545.17,240.65 549.94,240.48 554.71,239.88 559.48,239.03 564.25,235.89 569.02,230.20 573.79,225.53 578.56,224.43 583.33,223.75 588.10,222.90 592.87,221.29 597.64,221.29 602.41,220.10 607.18,220.10 611.95,219.84 616.72,218.74 621.49,218.74 626.26,217.21 631.03,216.11 635.80,215.68 640.57,212.79 645.34,212.37 650.11,212.28 654.88,211.69 659.65,203.28 664.42,200.82 669.19,196.23 673.96,195.64 678.73,195.22 683.50,195.22 688.27,195.22 693.04,193.18 697.81,189.53 702.58,189.02 707.35,188.25 712.12,186.30 716.89,185.45 721.66,185.02 726.43,180.35 731.20,176.45 735.98,176.19 740.75,172.80 745.52,171.18 750.29,169.91 755.06,167.28 759.83,165.83 764.60,164.39 769.37,159.21 774.14,152.50 778.91,151.40 783.68,147.83 788.45,145.11 793.22,143.67 797.99,140.10 802.76,139.59 807.53,139.59 812.30,136.11 817.07,133.73 821.84,129.40 826.61,125.16 831.38,122.27 836.15,115.22 840.92,111.48 845.69,108.85 850.46,106.56 855.23,104.35 860.00,102.91" fill="none" stroke="url(#lineGradient)" stroke-width="3.4" stroke-linecap="round" stroke-linejoin="round"/>
  <circle cx="860.00" cy="102.91" r="6" fill="#C8B6FF" stroke="#B8E6FF" stroke-width="3"/>

  <text x="92.00" y="298" text-anchor="middle" class="axis">23/04/26</text>
  <text x="282.81" y="298" text-anchor="middle" class="axis">02/06/26</text>
  <text x="473.61" y="298" text-anchor="middle" class="axis">12/07/26</text>
  <text x="669.19" y="298" text-anchor="middle" class="axis">22/08/26</text>
  <text x="860.00" y="298" text-anchor="middle" class="axis">01/10/26</text>
</svg>
