<svg xmlns="http://www.w3.org/2000/svg" width="900" height="320" viewBox="0 0 900 320" role="img" aria-labelledby="title desc">
  <title id="title">Evolução das contribuições de bielxdh3</title>
  <desc id="desc">Contribuições contabilizadas pelo perfil GitHub do primeiro registro de 2026, em 2026-04-23, até 2026-09-06. Total: 1040. repositórios privados permanecem anônimos.</desc>
  <defs>
    <linearGradient id="lineGradient" x1="0" x2="1">
      <stop offset="0%" stop-color="#B8E6FF"/>
      <stop offset="55%" stop-color="#9ED8FA"/>
      <stop offset="100%" stop-color="#C8B6FF"/>
    </linearGradient>
    <linearGradient id="areaGradient" x1="0" y1="0" x2="0" y2="1">
      <stop offset="0%" stop-color="#B8E6FF" stop-opacity="0.22"/>
      <stop offset="100%" stop-color="#C8B6FF" stop-opacity="0.02"/>
    </linearGradient>
    <style>
      .title { fill: #E6EDF3; font: 700 22px ui-monospace, SFMono-Regular, Menlo, Consolas, monospace; }
      .value { fill: #B8E6FF; font: 700 22px ui-monospace, SFMono-Regular, Menlo, Consolas, monospace; }
      .subtitle { fill: #8B949E; font: 12px ui-monospace, SFMono-Regular, Menlo, Consolas, monospace; }
      .axis { fill: #8B949E; font: 11px ui-monospace, SFMono-Regular, Menlo, Consolas, monospace; }
      .small { fill: #8B949E; font: 10px ui-monospace, SFMono-Regular, Menlo, Consolas, monospace; }
    </style>
  </defs>

  <rect x="1" y="1" width="898" height="318" rx="18" fill="#0D1117" stroke="#30363D"/>
  <text x="42" y="38" class="title">EVOLUÇÃO DAS CONTRIBUIÇÕES</text>
  <text x="858" y="38" text-anchor="end" class="value">1.040</text>
  <text x="42" y="60" class="subtitle">desde 23/04/2026 · repositórios privados permanecem anônimos</text>
  <text x="858" y="60" text-anchor="end" class="small">@bielxdh3</text>

  <line x1="92" y1="90.00" x2="860" y2="90.00" stroke="#27303A" stroke-width="1"/>
  <text x="78" y="94.00" text-anchor="end" class="axis">1.124</text>
  <line x1="92" y1="133.50" x2="860" y2="133.50" stroke="#27303A" stroke-width="1"/>
  <text x="78" y="137.50" text-anchor="end" class="axis">843</text>
  <line x1="92" y1="177.00" x2="860" y2="177.00" stroke="#27303A" stroke-width="1"/>
  <text x="78" y="181.00" text-anchor="end" class="axis">562</text>
  <line x1="92" y1="220.50" x2="860" y2="220.50" stroke="#27303A" stroke-width="1"/>
  <text x="78" y="224.50" text-anchor="end" class="axis">281</text>
  <line x1="92" y1="264.00" x2="860" y2="264.00" stroke="#27303A" stroke-width="1"/>
  <text x="78" y="268.00" text-anchor="end" class="axis">0</text>
  <line x1="92" y1="264" x2="860" y2="264" stroke="#3A4550" stroke-width="1.2"/>

  <path d="M 92.00 264.00 L 92.00 263.69 L 97.65 262.92 L 103.29 262.61 L 108.94 262.61 L 114.59 261.83 L 120.24 261.68 L 125.88 261.52 L 131.53 261.52 L 137.18 261.52 L 142.82 261.52 L 148.47 261.52 L 154.12 261.52 L 159.76 261.52 L 165.41 261.52 L 171.06 261.52 L 176.71 261.52 L 182.35 261.52 L 188.00 261.52 L 193.65 261.52 L 199.29 261.52 L 204.94 261.52 L 210.59 261.52 L 216.24 261.52 L 221.88 261.52 L 227.53 261.52 L 233.18 261.52 L 238.82 261.52 L 244.47 261.52 L 250.12 261.52 L 255.76 261.52 L 261.41 261.52 L 267.06 261.52 L 272.71 261.52 L 278.35 261.52 L 284.00 261.52 L 289.65 261.52 L 295.29 261.52 L 300.94 261.52 L 306.59 261.52 L 312.24 261.52 L 317.88 261.52 L 323.53 261.52 L 329.18 261.52 L 334.82 261.52 L 340.47 261.52 L 346.12 261.52 L 351.76 261.52 L 357.41 261.52 L 363.06 261.52 L 368.71 261.52 L 374.35 261.52 L 380.00 261.52 L 385.65 261.52 L 391.29 261.52 L 396.94 261.52 L 402.59 261.52 L 408.24 261.52 L 413.88 259.36 L 419.53 257.96 L 425.18 257.50 L 430.82 254.87 L 436.47 253.16 L 442.12 250.53 L 447.76 247.44 L 453.41 246.82 L 459.06 246.66 L 464.71 246.51 L 470.35 246.51 L 476.00 246.51 L 481.65 246.51 L 487.29 246.51 L 492.94 246.51 L 498.59 246.51 L 504.24 246.51 L 509.88 246.51 L 515.53 246.51 L 521.18 246.51 L 526.82 246.51 L 532.47 246.51 L 538.12 246.51 L 543.76 246.51 L 549.41 246.51 L 555.06 240.62 L 560.71 240.01 L 566.35 239.08 L 572.00 238.92 L 577.65 238.92 L 583.29 238.92 L 588.94 235.67 L 594.59 234.12 L 600.24 233.50 L 605.88 233.50 L 611.53 233.35 L 617.18 224.06 L 622.82 221.89 L 628.47 221.43 L 634.12 221.12 L 639.76 220.04 L 645.41 218.49 L 651.06 212.76 L 656.71 202.39 L 662.35 193.87 L 668.00 191.86 L 673.65 190.62 L 679.29 189.07 L 684.94 186.13 L 690.59 186.13 L 696.24 183.97 L 701.88 183.97 L 707.53 183.50 L 713.18 181.95 L 718.82 181.95 L 724.47 179.17 L 730.12 177.15 L 735.76 176.38 L 741.41 171.12 L 747.06 170.34 L 752.71 170.19 L 758.35 169.10 L 764.00 154.71 L 769.65 151.77 L 775.29 143.41 L 780.94 142.32 L 786.59 141.55 L 792.24 141.55 L 797.88 141.55 L 803.53 137.83 L 809.18 131.18 L 814.82 130.25 L 820.47 128.86 L 826.12 125.30 L 831.76 123.75 L 837.41 122.97 L 843.06 114.46 L 848.71 109.20 L 854.35 108.73 L 860.00 103.00 L 860.00 264.00 Z" fill="url(#areaGradient)"/>
  <polyline points="92.00,263.69 97.65,262.92 103.29,262.61 108.94,262.61 114.59,261.83 120.24,261.68 125.88,261.52 131.53,261.52 137.18,261.52 142.82,261.52 148.47,261.52 154.12,261.52 159.76,261.52 165.41,261.52 171.06,261.52 176.71,261.52 182.35,261.52 188.00,261.52 193.65,261.52 199.29,261.52 204.94,261.52 210.59,261.52 216.24,261.52 221.88,261.52 227.53,261.52 233.18,261.52 238.82,261.52 244.47,261.52 250.12,261.52 255.76,261.52 261.41,261.52 267.06,261.52 272.71,261.52 278.35,261.52 284.00,261.52 289.65,261.52 295.29,261.52 300.94,261.52 306.59,261.52 312.24,261.52 317.88,261.52 323.53,261.52 329.18,261.52 334.82,261.52 340.47,261.52 346.12,261.52 351.76,261.52 357.41,261.52 363.06,261.52 368.71,261.52 374.35,261.52 380.00,261.52 385.65,261.52 391.29,261.52 396.94,261.52 402.59,261.52 408.24,261.52 413.88,259.36 419.53,257.96 425.18,257.50 430.82,254.87 436.47,253.16 442.12,250.53 447.76,247.44 453.41,246.82 459.06,246.66 464.71,246.51 470.35,246.51 476.00,246.51 481.65,246.51 487.29,246.51 492.94,246.51 498.59,246.51 504.24,246.51 509.88,246.51 515.53,246.51 521.18,246.51 526.82,246.51 532.47,246.51 538.12,246.51 543.76,246.51 549.41,246.51 555.06,240.62 560.71,240.01 566.35,239.08 572.00,238.92 577.65,238.92 583.29,238.92 588.94,235.67 594.59,234.12 600.24,233.50 605.88,233.50 611.53,233.35 617.18,224.06 622.82,221.89 628.47,221.43 634.12,221.12 639.76,220.04 645.41,218.49 651.06,212.76 656.71,202.39 662.35,193.87 668.00,191.86 673.65,190.62 679.29,189.07 684.94,186.13 690.59,186.13 696.24,183.97 701.88,183.97 707.53,183.50 713.18,181.95 718.82,181.95 724.47,179.17 730.12,177.15 735.76,176.38 741.41,171.12 747.06,170.34 752.71,170.19 758.35,169.10 764.00,154.71 769.65,151.77 775.29,143.41 780.94,142.32 786.59,141.55 792.24,141.55 797.88,141.55 803.53,137.83 809.18,131.18 814.82,130.25 820.47,128.86 826.12,125.30 831.76,123.75 837.41,122.97 843.06,114.46 848.71,109.20 854.35,108.73 860.00,103.00" fill="none" stroke="url(#lineGradient)" stroke-width="3.4" stroke-linecap="round" stroke-linejoin="round"/>
  <circle cx="860.00" cy="103.00" r="6" fill="#C8B6FF" stroke="#B8E6FF" stroke-width="3"/>

  <text x="92.00" y="298" text-anchor="middle" class="axis">23/04/26</text>
  <text x="284.00" y="298" text-anchor="middle" class="axis">27/05/26</text>
  <text x="476.00" y="298" text-anchor="middle" class="axis">30/06/26</text>
  <text x="668.00" y="298" text-anchor="middle" class="axis">03/08/26</text>
  <text x="860.00" y="298" text-anchor="middle" class="axis">06/09/26</text>
</svg>
